<svg xmlns="http://www.w3.org/2000/svg" viewBox="0 0 128 128">
  <defs>
    <linearGradient id="leafGrad" x1="0%" y1="0%" x2="100%" y2="100%">
      <stop offset="0%" style="stop-color:#22c55e"/>
      <stop offset="100%" style="stop-color:#16a34a"/>
    </linearGradient>
  </defs>
  <!-- Hoja principal -->
  <path d="M64 12 C30 12 18 40 20 72 C22 90 36 108 64 116 C92 108 106 90 108 72 C110 40 98 12 64 12 Z" fill="url(#leafGrad)"/>
  <!-- Nervadura central -->
  <line x1="64" y1="22" x2="64" y2="106" stroke="#fff" stroke-width="3" stroke-linecap="round" opacity="0.6"/>
  <!-- Nervaduras laterales -->
  <line x1="64" y1="45" x2="42" y2="60" stroke="#fff" stroke-width="2" stroke-linecap="round" opacity="0.5"/>
  <line x1="64" y1="45" x2="86" y2="60" stroke="#fff" stroke-width="2" stroke-linecap="round" opacity="0.5"/>
  <line x1="64" y1="65" x2="38" y2="78" stroke="#fff" stroke-width="2" stroke-linecap="round" opacity="0.5"/>
  <line x1="64" y1="65" x2="90" y2="78" stroke="#fff" stroke-width="2" stroke-linecap="round" opacity="0.5"/>
  <!-- Puntos smart (nodos de circuito) -->
  <circle cx="42" cy="60" r="4" fill="#fff" opacity="0.85"/>
  <circle cx="86" cy="60" r="4" fill="#fff" opacity="0.85"/>
  <circle cx="38" cy="78" r="3.5" fill="#fff" opacity="0.75"/>
  <circle cx="90" cy="78" r="3.5" fill="#fff" opacity="0.75"/>
  <circle cx="64" cy="45" r="5" fill="#fff" opacity="0.9"/>
</svg>
